<?xml version="1.0" standalone="no"?>
<!DOCTYPE svg PUBLIC "-//W3C//DTD SVG 20010904//EN"
 "http://www.w3.org/TR/2001/REC-SVG-20010904/DTD/svg10.dtd">
<svg version="1.0" xmlns="http://www.w3.org/2000/svg"
 width="700.000000pt" height="700.000000pt" viewBox="0 0 700.000000 700.000000"
 preserveAspectRatio="xMidYMid meet">
<metadata>
Created by potrace 1.11, written by Peter Selinger 2001-2013
</metadata>
<g transform="translate(0.000000,700.000000) scale(0.100000,-0.100000)"
fill="#000000" stroke="none">
<path d="M3299 6845 c-2 -2 -45 -6 -94 -9 -50 -4 -102 -8 -115 -11 -14 -2 -43
-6 -65 -9 -22 -4 -51 -8 -65 -11 -14 -2 -43 -7 -65 -10 -124 -18 -473 -114
-580 -160 -16 -7 -61 -25 -99 -40 -38 -15 -77 -31 -85 -35 -9 -5 -68 -34 -131
-65 -204 -101 -433 -246 -576 -364 -17 -14 -42 -35 -55 -45 -285 -227 -573
-565 -782 -921 -163 -278 -326 -715 -381 -1020 -3 -16 -10 -55 -16 -85 -5 -30
-13 -77 -16 -105 -3 -27 -7 -63 -10 -80 -24 -184 -24 -567 0 -760 2 -11 6 -49
10 -85 12 -102 63 -338 102 -472 96 -330 235 -629 427 -918 74 -111 97 -143
186 -255 105 -131 299 -332 410 -425 30 -25 59 -50 65 -56 42 -41 385 -284
401 -284 2 0 36 -19 77 -43 337 -200 802 -355 1233 -412 208 -27 627 -28 835
0 97 13 117 15 140 20 14 3 43 8 65 11 90 13 448 109 492 132 10 6 22 10 26
10 11 0 107 38 227 91 645 282 1207 793 1562 1421 75 132 229 472 242 533 2 7
6 19 9 27 17 40 78 253 92 320 38 183 74 406 73 460 0 8 3 40 6 70 7 63 8 423
2 460 -3 14 -7 61 -10 105 -4 44 -9 92 -11 105 -3 14 -8 43 -11 65 -8 68 -17
111 -59 309 -20 90 -98 329 -150 456 -133 325 -340 665 -561 920 -91 106 -328
334 -434 419 -63 50 -120 96 -126 101 -37 29 -263 174 -341 219 -261 148 -663
303 -903 348 -13 2 -56 11 -95 19 -69 15 -156 28 -251 39 -27 3 -67 8 -89 11
-48 6 -501 15 -506 9z"/>
</g>
</svg>
